<svg xmlns="http://www.w3.org/2000/svg" width="48" height="48" viewBox="0 0 48 48"><g stroke-linecap="round" stroke-linejoin="round" stroke-width="3" color="#000" font-family="sans-serif" transform="translate(-677 -1110.362)"><path fill="#242730" d="M703 1112.362c-.554 0-1 .446-1 1v1c0 .554.446 1 1 1h10.004l.016 6.485c0 .825.67 1.493 1.496 1.496l6.484.017v28.502c0 .857-.643 1.5-1.5 1.5h-23c-.857 0-1.5-.643-1.5-1.5v-1.5c0-.554-.446-1-1-1h-1c-.554 0-1 .446-1 1v1.5c0 2.467 2.033 4.5 4.5 4.5h23c2.467 0 4.5-2.033 4.5-4.5v-30.487a1.5 1.5 0 0 0-.44-1.06l-7.513-7.514a1.5 1.5 0 0 0-1.06-.44zm-11 21c0 .554.446 1 1 1h1c.554 0 1-.446 1-1v-10c0-.554-.446-1-1-1h-1c-.554 0-1 .446-1 1z" overflow="visible" style="line-height:normal;text-indent:0;text-align:start;text-decoration-line:none;text-decoration-style:solid;text-decoration-color:#000;text-transform:none;block-progression:tb;isolation:auto;mix-blend-mode:normal"/><path fill="#11c111" style="line-height:normal;text-indent:0;text-align:start;text-decoration-line:none;text-decoration-style:solid;text-decoration-color:#000;text-transform:none;block-progression:tb;isolation:auto;mix-blend-mode:normal" d="M696.5 108c-2.467 0-4.5 2.033-4.5 4.5v2.5c0 .554.446 1 1 1h1c.554 0 1-.446 1-1v-2.5c0-.857.643-1.5 1.5-1.5h2.5c.554 0 1-.446 1-1v-1c0-.554-.446-1-1-1h-2.5zM681 132c-1.108 0-2 .892-2 2v7c0 1.108.892 2 2 2h25c1.108 0 2-.892 2-2v-7c0-1.108-.892-2-2-2h-25zm12.662 2.588c.448 0 .878.105 1.336.305.115-.21.23-.297.44-.297.296 0 .42.124.42.525l.01 1.213c0 .401-.095.545-.487.545-.286 0-.39-.144-.476-.44-.153-.544-.44-.83-1.127-.83-.946 0-1.48.65-1.48 1.891 0 1.232.534 1.89 1.49 1.89.878 0 1.401-.65 1.822-.65.238 0 .43.23.43.535 0 .497-1.06 1.147-2.348 1.147-1.643 0-2.73-1.203-2.73-2.922 0-1.633 1.106-2.912 2.7-2.912z" overflow="visible" transform="translate(0 1004.362)"/></g></svg>